<svg aria-labelledby="descId" fill="none" height="215" role="img" viewBox="0 0 300 215" width="300" xmlns="http://www.w3.org/2000/svg"><title id="titleId"></title><desc id="descId"></desc><style>.header{font:600 18px 'Segoe UI',Ubuntu,Sans-Serif;fill:#fff;animation:fadeInAnimation .8s ease-in-out forwards}@supports(-moz-appearance:auto){.header{font-size:15.5px}}@keyframes slideInAnimation{from{width:0}to{width:calc(100%-100px)}}@keyframes growWidthAnimation{from{width:0}to{width:100%}}.stat{font:600 14px 'Segoe UI',Ubuntu,"Helvetica Neue",Sans-Serif;fill:#9f9f9f}@supports(-moz-appearance:auto){.stat{font-size:12px}}.bold{font-weight:700}.lang-name{font:400 11px "Segoe UI",Ubuntu,Sans-Serif;fill:#9f9f9f}.stagger{opacity:0;animation:fadeInAnimation .3s ease-in-out forwards}#rect-mask rect{animation:slideInAnimation 1s ease-in-out forwards}.lang-progress{animation:growWidthAnimation .6s ease-in-out forwards}@keyframes scaleInAnimation{from{transform:translate(-5px,5px) scale(0)}to{transform:translate(-5px,5px) scale(1)}}@keyframes fadeInAnimation{from{opacity:0}to{opacity:1}}</style><rect fill="#151515" height="99%" width="299" x="0.5" y="0.5" data-testid="card-bg" rx="4.5" stroke="#e4e2e2" stroke-opacity="1"/><g transform="translate(25, 35)" data-testid="card-title"><g transform="translate(0, 0)"><text class="header" data-testid="header" x="0" y="0">Contents of One Standard Falfiya</text></g></g><g transform="translate(0, 55)" data-testid="main-card-body"><svg data-testid="lang-items" x="25"><mask id="rect-mask"><rect fill="white" height="8" width="250" x="0" y="0" rx="5"/></mask><rect fill="#3178c6" height="8" width="61.57" x="0" y="0" data-testid="lang-progress" mask="url(#rect-mask)"/><rect fill="#3572A5" height="8" width="30.26" x="61.57" y="0" data-testid="lang-progress" mask="url(#rect-mask)"/><rect fill="#f1e05a" height="8" width="30.1" x="91.83" y="0" data-testid="lang-progress" mask="url(#rect-mask)"/><rect fill="#555555" height="8" width="27.88" x="121.93" y="0" data-testid="lang-progress" mask="url(#rect-mask)"/><rect fill="#b07219" height="8" width="26.86" x="149.81" y="0" data-testid="lang-progress" mask="url(#rect-mask)"/><rect fill="#f34b7d" height="8" width="25.84" x="176.67000000000002" y="0" data-testid="lang-progress" mask="url(#rect-mask)"/><rect fill="#e34c26" height="8" width="19.02" x="202.51000000000002" y="0" data-testid="lang-progress" mask="url(#rect-mask)"/><rect fill="#3fb68b" height="8" width="16.54" x="221.53000000000003" y="0" data-testid="lang-progress" mask="url(#rect-mask)"/><rect fill="#427819" height="8" width="16.37" x="238.07000000000002" y="0" data-testid="lang-progress" mask="url(#rect-mask)"/><rect fill="#b845fc" height="8" width="15.559999999999999" x="244.44000000000003" y="0" data-testid="lang-progress" mask="url(#rect-mask)"/><g transform="translate(0, 25)"><g transform="translate(0, 0)"><g transform="translate(0, 0)"><g class="stagger" style="animation-delay:450ms"><circle cx="5" cy="6" fill="#3178c6" r="5"/><text class="lang-name" data-testid="lang-name" x="15" y="10">TypeScript 24.63%</text></g></g><g transform="translate(0, 25)"><g class="stagger" style="animation-delay:.6s"><circle cx="5" cy="6" fill="#3572A5" r="5"/><text class="lang-name" data-testid="lang-name" x="15" y="10">Python 12.11%</text></g></g><g transform="translate(0, 50)"><g class="stagger" style="animation-delay:750ms"><circle cx="5" cy="6" fill="#f1e05a" r="5"/><text class="lang-name" data-testid="lang-name" x="15" y="10">JavaScript 12.04%</text></g></g><g transform="translate(0, 75)"><g class="stagger" style="animation-delay:.9s"><circle cx="5" cy="6" fill="#555555" r="5"/><text class="lang-name" data-testid="lang-name" x="15" y="10">C 11.15%</text></g></g><g transform="translate(0, 100)"><g class="stagger" style="animation-delay:1.05s"><circle cx="5" cy="6" fill="#b07219" r="5"/><text class="lang-name" data-testid="lang-name" x="15" y="10">Java 10.74%</text></g></g></g><g transform="translate(150, 0)"><g transform="translate(0, 0)"><g class="stagger" style="animation-delay:450ms"><circle cx="5" cy="6" fill="#f34b7d" r="5"/><text class="lang-name" data-testid="lang-name" x="15" y="10">C-- 10.34%</text></g></g><g transform="translate(0, 25)"><g class="stagger" style="animation-delay:.6s"><circle cx="5" cy="6" fill="#e34c26" r="5"/><text class="lang-name" data-testid="lang-name" x="15" y="10">HTML 7.61%</text></g></g><g transform="translate(0, 50)"><g class="stagger" style="animation-delay:750ms"><circle cx="5" cy="6" fill="#3fb68b" r="5"/><text class="lang-name" data-testid="lang-name" x="15" y="10">Rare Lisp 6.61%</text></g></g><g transform="translate(0, 75)"><g class="stagger" style="animation-delay:.9s"><circle cx="5" cy="6" fill="#427819" r="5"/><text class="lang-name" data-testid="lang-name" x="15" y="10">Makefile 2.55%</text></g></g><g transform="translate(0, 100)"><g class="stagger" style="animation-delay:1.05s"><circle cx="5" cy="6" fill="#b845fc" r="5"/><text class="lang-name" data-testid="lang-name" x="15" y="10">F# 2.22%</text></g></g></g></g></svg></g></svg>
