<svg width="350" height="215" viewBox="0 0 350 215" fill="none" xmlns="http://www.w3.org/2000/svg" role="img" aria-labelledby="descId"><title id="titleId"/><desc id="descId"/><style>.header{font:600 18px 'Segoe UI',Ubuntu,Sans-Serif;fill:#fff;animation:fadeInAnimation .8s ease-in-out forwards}@supports(-moz-appearance:auto){.header{font-size:15.5px}}@keyframes slideInAnimation{from{width:0}to{width:calc(100%-100px)}}@keyframes growWidthAnimation{from{width:0}to{width:100%}}.lang-name{font:400 11px "Segoe UI",Ubuntu,Sans-Serif;fill:#9f9f9f}.stagger{opacity:0;animation:fadeInAnimation .3s ease-in-out forwards}#rect-mask rect{animation:slideInAnimation 1s ease-in-out forwards}.lang-progress{animation:growWidthAnimation .6s ease-in-out forwards}@keyframes scaleInAnimation{from{transform:translate(-5px,5px) scale(0)}to{transform:translate(-5px,5px) scale(1)}}@keyframes fadeInAnimation{from{opacity:0}to{opacity:1}}</style><rect data-testid="card-bg" x="0.5" y="0.5" rx="4.5" height="99%" stroke="#e4e2e2" width="349" fill="#151515" stroke-opacity="1"/><g data-testid="card-title" transform="translate(25, 35)"><g transform="translate(0, 0)"><text x="0" y="0" class="header" data-testid="header">Contents of one standard coalpha</text></g></g><g data-testid="main-card-body" transform="translate(0, 55)"><svg data-testid="lang-items" x="25"><mask id="rect-mask"><rect x="0" y="0" width="300" height="8" fill="white" rx="5"/></mask><rect mask="url(#rect-mask)" data-testid="lang-progress" x="0" y="0" width="65.48" height="8" fill="#3178c6"/><rect mask="url(#rect-mask)" data-testid="lang-progress" x="65.48" y="0" width="42.22" height="8" fill="#555555"/><rect mask="url(#rect-mask)" data-testid="lang-progress" x="107.7" y="0" width="36.77" height="8" fill="#f1e05a"/><rect mask="url(#rect-mask)" data-testid="lang-progress" x="144.47" y="0" width="35.46" height="8" fill="#b07219"/><rect mask="url(#rect-mask)" data-testid="lang-progress" x="179.93" y="0" width="34.3" height="8" fill="#f34b7d"/><rect mask="url(#rect-mask)" data-testid="lang-progress" x="214.23000000000002" y="0" width="25.96" height="8" fill="#e34c26"/><rect mask="url(#rect-mask)" data-testid="lang-progress" x="240.19000000000003" y="0" width="22.73" height="8" fill="#3fb68b"/><rect mask="url(#rect-mask)" data-testid="lang-progress" x="262.92" y="0" width="21.35" height="8" fill="#3572A5"/><rect mask="url(#rect-mask)" data-testid="lang-progress" x="284.27000000000004" y="0" width="18.34" height="8" fill="#427819"/><rect mask="url(#rect-mask)" data-testid="lang-progress" x="292.61" y="0" width="17.39" height="8" fill="#b845fc"/><g transform="translate(0, 25)"><g transform="translate(0, 0)"><g transform="translate(0, 0)"><g class="stagger" style="animation-delay:450ms"><circle cx="5" cy="6" r="5" fill="#3178c6"/><text data-testid="lang-name" x="15" y="10" class="lang-name">TypeScript 21.83%</text></g></g><g transform="translate(0, 25)"><g class="stagger" style="animation-delay:.6s"><circle cx="5" cy="6" r="5" fill="#555555"/><text data-testid="lang-name" x="15" y="10" class="lang-name">C 14.07%</text></g></g><g transform="translate(0, 50)"><g class="stagger" style="animation-delay:750ms"><circle cx="5" cy="6" r="5" fill="#f1e05a"/><text data-testid="lang-name" x="15" y="10" class="lang-name">JavaScript 12.26%</text></g></g><g transform="translate(0, 75)"><g class="stagger" style="animation-delay:.9s"><circle cx="5" cy="6" r="5" fill="#b07219"/><text data-testid="lang-name" x="15" y="10" class="lang-name">Java 11.82%</text></g></g><g transform="translate(0, 100)"><g class="stagger" style="animation-delay:1.05s"><circle cx="5" cy="6" r="5" fill="#f34b7d"/><text data-testid="lang-name" x="15" y="10" class="lang-name">C++ 11.43%</text></g></g></g><g transform="translate(150, 0)"><g transform="translate(0, 0)"><g class="stagger" style="animation-delay:450ms"><circle cx="5" cy="6" r="5" fill="#e34c26"/><text data-testid="lang-name" x="15" y="10" class="lang-name">HTML 8.65%</text></g></g><g transform="translate(0, 25)"><g class="stagger" style="animation-delay:.6s"><circle cx="5" cy="6" r="5" fill="#3fb68b"/><text data-testid="lang-name" x="15" y="10" class="lang-name">Rare Lisp 7.58%</text></g></g><g transform="translate(0, 50)"><g class="stagger" style="animation-delay:750ms"><circle cx="5" cy="6" r="5" fill="#3572A5"/><text data-testid="lang-name" x="15" y="10" class="lang-name">Python 7.12%</text></g></g><g transform="translate(0, 75)"><g class="stagger" style="animation-delay:.9s"><circle cx="5" cy="6" r="5" fill="#427819"/><text data-testid="lang-name" x="15" y="10" class="lang-name">Makefile 2.78%</text></g></g><g transform="translate(0, 100)"><g class="stagger" style="animation-delay:1.05s"><circle cx="5" cy="6" r="5" fill="#b845fc"/><text data-testid="lang-name" x="15" y="10" class="lang-name">F# 2.46%</text></g></g></g></g></svg></g></svg>
